<svg fill="none" height="111" viewBox="0 0 114 111" width="114" xmlns="http://www.w3.org/2000/svg"><path d="m25 2h64c12.703 0 23 10.2975 23 23v61c0 12.7026-10.297 23-23 23h-64c-12.7025 0-23-10.2974-23-23v-61c0-12.7025 10.2975-23 23-23z" fill="#fff" stroke="#cd2525" stroke-width="4"/><g fill="#cd2525"><path d="m64.9275 55.1481c4.1142-7.8698 8.426-16.9523 9.174-21.7255-.3157-1.2152-3.167-7.3525-5.6645-12.5645-.1312-.2761-.2631-.5497-.3927-.8201-.0955 1.5341-.3602 3.0018-.7391 4.4064-.0065.285-.1546.8112-.2267.7894-.1085.3594-.225.714-.3481 1.0646-.7934 2.2724-1.8458 4.3595-2.8958 6.2579-.6315 1.1399-2.7841 5.0663-5.637 10.2726-.2097.3821-.4226.7707-.6388 1.1666-2.0312 3.707-4.3636 7.967-6.7299 12.2901-.2291.4193-.4591.8387-.689 1.258-6.4951 11.8675-13.0502 23.8499-14.1399 25.8423.9164 1.4831 5.0752 8.2373 6.4838 10.9793 2.6028-3.7013 9.255-15.5323 12.5799-21.4438.3344-.5942.6355-1.1302.897-1.5957.2761-.4889.5076-.8994.6898-1.2184.1303-.2307.2372-.4153.3117-.544.2963-.5052 3.6624-6.2628 7.3435-13.2324.2065-.3894.4145-.7845.6218-1.1828z"/><path d="m64.9575 57.5145c-3.3266 6.2579-6.3365 11.4294-7.032 12.6155-.14.2388-.3869.6727-.7189 1.2613 1.029 2.3623 1.8345 4.1498 2.2523 4.9853.4582.9164 1.1398 2.219 1.93 3.7272 3.3783 6.4547 6.4798 12.5063 7.5476 15.8538 1.3115-2.929 2.4489-4.7627 3.737-6.8376 1.1576-1.866 2.4659-3.975 4.1595-7.3055-2.1656-4.1555-4.1361-8.422-5.8783-12.1938-1.7567-3.8065-3.4171-7.4018-4.9885-10.2701-.2575-.4696-.5991-1.0905-1.0087-1.8361z"/><path d="m56.9257 42.8265c-3.027-5.5982-5.8086-10.8458-7.8358-14.8904-.1732-.3465-.3408-.6833-.5035-1.012-.7084-1.4321-1.3043-2.6845-1.7625-3.7151-.1101-.2485-.2137-.4849-.3076-.7075-.149.7577-.3255 1.6515-.5165 2.6189-.1061.5376-.2162 1.0978-.3295 1.671-.8468 4.2996-1.8296 9.2987-2.0288 10.4377-.0089.7173 1.7398 5.7577 6.6417 17.7263 2.3526-4.2955 4.655-8.5004 6.6425-12.1289z"/><path d="m57.1759 24.0728c.4979-.0259 1.0063-.0396 1.5106-.0396 3.0837 0 5.6557.4817 7.3137.9018.6727-2.2036 1.0646-4.5716.9431-7.0967-2.1834-2.393-4.0162-2.8383-6.7947-2.8383-.7075 0-1.4742.0291-2.2862.0599-4.1142.1554-8.7782 2.925-10.896 5.48.2736.9771 1.2322 3.0812 2.5923 5.8272 1.9923-1.0807 4.655-2.1388 7.6172-2.2943z"/></g></svg>