<svg fill="none" height="111" viewBox="0 0 479 111" width="479" xmlns="http://www.w3.org/2000/svg"><path d="m184.785 82h-13.175v-22.865h-20.995v22.865h-13.09v-57.29h13.09v23.29h20.995v-23.29h13.175zm20.701 0h-13.09v-57.29h13.09zm37.206 0h-14.45l-19.04-57.29h14.11l6.885 22.865c1.247 4.08 2.323 8.0183 3.23 11.815.907 3.74 1.502 6.46 1.785 8.16l.425 2.635c.907-5.8933 2.748-13.43 5.525-22.61l6.885-22.865h13.94zm36.48-24.225-.935 2.89h18.36l-.935-2.89c-2.153-6.6867-3.91-12.2117-5.27-16.575-1.36-4.42-2.181-7.1683-2.465-8.245l-.425-1.615c-.623 2.6633-3.4 11.475-8.33 26.435zm-7.905 24.225h-9.265l19.805-57.29h11.475l19.55 57.29h-9.35l-4.505-14.025h-23.12zm64.528 0h-9.435l-13.515-43.095h8.84l3.995 14.28c1.304 4.5333 2.409 8.5283 3.315 11.985.907 3.4567 1.474 5.78 1.7 6.97l.34 1.785c.737-3.57 2.607-10.5117 5.61-20.825l4.165-14.195h8.075l4.25 14.195c1.36 4.7033 2.522 8.8117 3.485 12.325.964 3.4567 1.587 5.7517 1.87 6.885l.34 1.7c.68-3.3433 2.607-10.3133 5.78-20.91l4.25-14.195h8.415l-13.685 43.095h-9.52l-3.995-14.11c-1.19-4.3067-2.238-8.1033-3.145-11.39-.85-3.3433-1.416-5.61-1.7-6.8l-.34-1.7c-.793 3.6833-2.521 10.3133-5.185 19.89zm58.642-6.205c2.72 0 4.845-.7367 6.375-2.21 1.587-1.53 2.38-3.5133 2.38-5.95v-4.845h-6.46c-3.173 0-5.582.6233-7.225 1.87-1.587 1.2467-2.38 2.8333-2.38 4.76 0 1.9833.623 3.5417 1.87 4.675s3.06 1.7 5.44 1.7zm9.01 1.105c-2.21 3.6267-6.092 5.44-11.645 5.44-4.08 0-7.367-1.1617-9.86-3.485-2.437-2.38-3.655-5.3833-3.655-9.01 0-4.1367 1.558-7.3383 4.675-9.605 3.117-2.3233 7.48-3.485 13.09-3.485h7.14v-2.465c0-2.9467-.708-5.1567-2.125-6.63-1.417-1.53-3.768-2.295-7.055-2.295-4.59 0-8.755 1.275-12.495 3.825v-8.075c3.343-1.9267 7.763-2.89 13.26-2.89 11.277 0 16.915 5.4683 16.915 16.405v27.37h-8.245zm23.547 5.1h-8.33v-43.095h8.33v7.565c2.096-5.3267 5.865-7.99 11.305-7.99.793 0 1.671.085 2.635.255v8.16c-1.19-.51-2.522-.765-3.995-.765-2.89 0-5.27 1.275-7.14 3.825s-2.805 5.5817-2.805 9.095zm48.354-2.295c-3.174 1.8133-7.367 2.72-12.58 2.72-6.687 0-12.014-2.0117-15.98-6.035-3.967-4.0233-5.95-9.2933-5.95-15.81 0-6.9133 1.813-12.325 5.44-16.235 3.626-3.9667 8.245-5.95 13.855-5.95 5.496 0 9.86 1.7283 13.09 5.185 3.23 3.4 4.845 8.33 4.845 14.79 0 1.7567-.17 3.5983-.51 5.525h-28.305c.566 3.74 2.153 6.6017 4.76 8.585 2.606 1.9833 5.893 2.975 9.86 2.975 4.59 0 8.415-1.0767 11.475-3.23zm-15.045-34.425c-2.834 0-5.27 1.0483-7.31 3.145-2.04 2.04-3.315 5.015-3.825 8.925h20.825v-1.53c-.114-3.23-.992-5.78-2.635-7.65-1.644-1.9267-3.995-2.89-7.055-2.89z" fill="#cd2525"/><path d="m25 2h64c12.703 0 23 10.2975 23 23v61c0 12.7026-10.297 23-23 23h-64c-12.7025 0-23-10.2974-23-23v-61c0-12.7025 10.2975-23 23-23z" fill="#fff" stroke="#cd2525" stroke-width="4"/><g fill="#cd2525"><path d="m64.9275 55.1481c4.1142-7.8698 8.426-16.9523 9.174-21.7255-.3157-1.2152-3.167-7.3525-5.6645-12.5645-.1312-.2761-.2631-.5497-.3927-.8201-.0955 1.5341-.3602 3.0018-.7391 4.4064-.0065.285-.1546.8112-.2267.7894-.1085.3594-.225.714-.3481 1.0646-.7934 2.2724-1.8458 4.3595-2.8958 6.2579-.6315 1.1399-2.7841 5.0663-5.637 10.2726-.2097.3821-.4226.7707-.6388 1.1666-2.0312 3.707-4.3636 7.967-6.7299 12.2901-.2291.4193-.4591.8387-.689 1.258-6.4951 11.8675-13.0502 23.8499-14.1399 25.8423.9164 1.4831 5.0752 8.2373 6.4838 10.9793 2.6028-3.7013 9.255-15.5323 12.5799-21.4438.3344-.5942.6355-1.1302.897-1.5957.2761-.4889.5076-.8994.6898-1.2184.1303-.2307.2372-.4153.3117-.544.2963-.5052 3.6624-6.2628 7.3435-13.2324.2065-.3894.4145-.7845.6218-1.1828z"/><path d="m64.9575 57.5145c-3.3266 6.2579-6.3365 11.4294-7.032 12.6155-.14.2388-.3869.6727-.7189 1.2613 1.029 2.3623 1.8345 4.1498 2.2523 4.9853.4582.9164 1.1398 2.219 1.93 3.7272 3.3783 6.4547 6.4798 12.5063 7.5476 15.8538 1.3115-2.929 2.4489-4.7627 3.737-6.8376 1.1576-1.866 2.4659-3.975 4.1595-7.3055-2.1656-4.1555-4.1361-8.422-5.8783-12.1938-1.7567-3.8065-3.4172-7.4018-4.9885-10.2701-.2575-.4696-.5991-1.0905-1.0087-1.8361z"/><path d="m56.9257 42.8265c-3.027-5.5982-5.8086-10.8458-7.8358-14.8904-.1732-.3465-.3408-.6833-.5035-1.012-.7084-1.4321-1.3043-2.6845-1.7625-3.7151-.1101-.2485-.2137-.4849-.3076-.7075-.149.7577-.3255 1.6515-.5165 2.6189-.1061.5376-.2162 1.0978-.3295 1.671-.8468 4.2996-1.8296 9.2987-2.0288 10.4377-.0089.7173 1.7398 5.7577 6.6417 17.7263 2.3526-4.2955 4.655-8.5004 6.6425-12.1289z"/><path d="m57.1759 24.0728c.4979-.0259 1.0063-.0396 1.5106-.0396 3.0837 0 5.6557.4817 7.3137.9018.6727-2.2036 1.0646-4.5716.9431-7.0967-2.1834-2.393-4.0162-2.8383-6.7947-2.8383-.7075 0-1.4742.0291-2.2862.0599-4.1142.1554-8.7782 2.925-10.896 5.48.2736.9771 1.2322 3.0812 2.5923 5.8272 1.9923-1.0807 4.655-2.1388 7.6172-2.2943z"/></g></svg>